<svg width="32" height="32" viewBox="0 0 32 32" xmlns="http://www.w3.org/2000/svg"><g fill="none" fill-rule="evenodd"><g fill="#FFF" fill-opacity=".8" fill-rule="nonzero"><path d="M21.448.08a1.006 1.006 0 00-.728-.023.924.924 0 00-.53.467l-2.101 3.213c-.221.445-.016.973.459 1.18.474.207 1.038.014 1.259-.43l2.105-3.227a.835.835 0 00.03-.68.912.912 0 00-.494-.5zM26.448.08a1.006 1.006 0 00-.728-.023.924.924 0 00-.53.467l-2.101 3.213c-.221.445-.016.973.459 1.18.474.207 1.038.014 1.259-.43l2.105-3.227a.835.835 0 00.03-.68.912.912 0 00-.494-.5zM28.448 4.08a1.006 1.006 0 00-.728-.023.924.924 0 00-.53.467l-2.101 3.213c-.221.445-.016.973.459 1.18.474.207 1.038.014 1.259-.43l2.105-3.227a.835.835 0 00.03-.68.912.912 0 00-.494-.5z"/></g><g stroke="#FFF" stroke-width="2"><path d="M3 20h12M8.921 8H21l7 9-5 11H11l-8-8z"/><path d="M21 9l-6 11 8 8"/></g><path d="M13.634 24.93c.429-.229.487-.826.141-1.34-.301-.498-.883-.713-1.409-.52-.429.229-.487.826-.141 1.34.301.498.883.713 1.409.52zM11.297 12.954a1 1 0 10-.594-1.908 1 1 0 00.594 1.908zM13.298 16.954a1 1 0 10-.596-1.908 1 1 0 00.596 1.908zM22.505 15.986c.477-.09.637-.605.358-1.15-.279-.544-.891-.913-1.368-.822-.477.09-.637.605-.358 1.15.279.544.891.913 1.368.822zM22.505 18.986c.477-.09.637-.605.358-1.15-.279-.544-.891-.913-1.368-.822-.477.09-.637.605-.358 1.15.279.544.891.913 1.368.822zM22.51 21.986c.475-.092.632-.607.35-1.152-.282-.544-.895-.912-1.37-.82-.475.092-.632.607-.35 1.152.282.544.895.912 1.37.82z" fill="#FFF" fill-rule="nonzero"/></g></svg>